:SAMPLES-PER-SECOND 30
:FULLY-SPECIFIED
:DEGREES
448
root  -66.8747 36.7018 -1.29899 -141.917 2.92145 176.989
RightUpLeg  -73.9713 -12.7402 9.12547
RightLeg  46.1828 -5.90309 -6.87648
RightFoot  -9.01844 0.0314992 -4.5537
RightToes  0.000482159 0.542163 -0.142577
Spine  75.6725 -4.13103 4.56927
Spine1  7.36273 -0.0897182 -2.94644
HEad  -33.1103 -4.35198 9.0934
LeftShoulder1  6.52428 -24.4898 -16.4517
LeftArm  -101.93 -65.1842 47.2982
LeftForeArm  6.03556 -14.9563 0.1397
LeftHand  -0.25398 0.0180481 5.50724
RightShoulder  -0.0535736 5.67054 -10.2781
RightArm  -98.6337 62.9288 -24.6188
RightForeArm  -17.7017 20.0654 4.32622
RightHand  -0.610782 5.57431 -6.85649
LeftUpLeg  -75.8976 16.5071 -25.2283
LeftLeg  40.2745 4.39087 4.36351
LeftFoot  -5.75219 -0.368052 8.2361
LeftToes  1.06247e-005 4.65854e-005 -8.18501e-006
449
root  -66.8574 36.6768 -1.33034 -141.953 2.96202 177.148
RightUpLeg  -74.0396 -12.7824 9.47393
RightLeg  46.3976 -5.78357 -6.79606
RightFoot  -9.00182 0.0359027 -4.7311
RightToes  0.000482159 0.542163 -0.142577
Spine  75.8004 -4.19895 4.72121
Spine1  7.15449 0.0530435 -3.43929
HEad  -35.3621 -4.09583 8.86498
LeftShoulder1  6.64453 -24.7973 -16.6319
LeftArm  -102.198 -65.281 45.6906
LeftForeArm  7.68588 -15.9888 -0.216046
LeftHand  -0.25398 0.0180481 5.50724
RightShoulder  -0.0139209 5.85013 -9.77914
RightArm  -98.2052 63.0175 -24.5357
RightForeArm  -19.5439 20.7048 4.7701
RightHand  -0.883467 5.32548 -9.91428
LeftUpLeg  -76.1706 16.9444 -25.4508
LeftLeg  40.6019 4.05804 4.10759
LeftFoot  -5.87532 -0.362938 8.33029
LeftToes  1.06247e-005 4.65854e-005 -8.18501e-006
450
root  -66.8411 36.6605 -1.34586 -142.052 3.0338 177.28
RightUpLeg  -73.9946 -12.6731 9.5863
RightLeg  46.5556 -5.78205 -6.83194
RightFoot  -8.91554 0.0429878 -4.87015
RightToes  0.000482159 0.542163 -0.142577
Spine  75.6428 -4.14836 5.00284
Spine1  7.48133 0.378894 -3.77834
HEad  -37.3645 -4.03791 8.48855
LeftShoulder1  6.51922 -25.0361 -15.9391
LeftArm  -103.342 -65.6034 45.4306
LeftForeArm  8.10688 -16.0493 -0.0157308
LeftHand  -0.25398 0.0180481 5.50724
RightShoulder  0.00979143 5.57446 -9.48614
RightArm  -98.9735 63.273 -25.562
RightForeArm  -22.0593 20.027 4.46379
RightHand  -1.27799 5.88562 -13.4865
LeftUpLeg  -76.3477 17.3333 -25.6461
LeftLeg  40.8584 3.90516 4.00149
LeftFoot  -5.95372 -0.364373 8.4918
LeftToes  1.06247e-005 4.65854e-005 -8.18501e-006
451
root  -66.827 36.6558 -1.32873 -142.206 3.13361 177.314
RightUpLeg  -73.9244 -12.5812 9.54486
RightLeg  46.6275 -5.76169 -6.82643
RightFoot  -8.73958 0.0539361 -4.96961
RightToes  0.000482159 0.542163 -0.142577
Spine  75.2282 -3.83403 5.13983
Spine1  7.89169 0.707547 -3.47222
HEad  -38.6955 -3.94825 7.43827
LeftShoulder1  6.47763 -25.3531 -15.4995
LeftArm  -102.954 -65.8013 46.9635
LeftForeArm  7.10828 -14.2706 0.871603
LeftHand  -0.25398 0.0180481 5.50724
RightShoulder  0.018593 5.35116 -9.37207
RightArm  -99.6642 63.7516 -26.9853
RightForeArm  -23.1515 18.4544 3.51522
RightHand  -1.82159 7.14598 -17.149
LeftUpLeg  -76.3928 17.6345 -25.927
LeftLeg  40.896 3.96546 4.06155
LeftFoot  -5.91201 -0.38365 8.82474
LeftToes  1.06247e-005 4.65854e-005 -8.18501e-006
452
root  -66.8179 36.6914 -1.27189 -142.516 3.22292 177.373
RightUpLeg  -73.6092 -12.5252 9.54891
RightLeg  46.4085 -5.76291 -6.77633
RightFoot  -8.37941 0.0781366 -5.20194
RightToes  0.000482159 0.542163 -0.142577
Spine  74.5721 -3.14346 5.18414
Spine1  8.27619 1.04571 -2.13956
HEad  -39.3706 -4.14869 5.61691
LeftShoulder1  6.84179 -26.0092 -16.2877
LeftArm  -101.006 -65.7057 49.2818
LeftForeArm  7.07079 -11.3817 1.47943
LeftHand  -0.25398 0.0180481 5.50724
RightShoulder  -0.0066456 5.25957 -9.69564
RightArm  -98.5999 64.5013 -28.7707
RightForeArm  -22.8094 16.0815 2.17717
RightHand  -2.57493 8.73106 -21.3471
LeftUpLeg  -76.2116 18.0814 -26.2764
LeftLeg  40.5727 3.88456 3.94558
LeftFoot  -5.64371 -0.426711 9.2372
LeftToes  1.06247e-005 4.65854e-005 -8.18501e-006
453
root  -66.809 36.8101 -1.17649 -143.134 3.32277 177.505
RightUpLeg  -72.6844 -12.4507 9.55999
RightLeg  45.6121 -5.8523 -6.6896
RightFoot  -7.76873 0.122263 -5.59216
RightToes  0.000482159 0.542163 -0.142577
Spine  74.1543 -3.24273 5.45286
Spine1  7.92358 1.30213 -2.69489
HEad  -39.1685 -4.37587 4.99276
LeftShoulder1  6.6872 -26.5828 -15.2396
LeftArm  -97.4213 -65.7235 48.3702
LeftForeArm  9.34425 -8.80653 1.37533
LeftHand  -0.25398 0.0180481 5.50724
RightShoulder  0.108359 5.68434 -8.27195
RightArm  -96.3979 65.7362 -31.9418
RightForeArm  -22.764 12.8189 1.16809
RightHand  -3.34072 9.86072 -25.4966
LeftUpLeg  -75.5996 18.9043 -26.6751
LeftLeg  39.7511 3.43022 3.43909
LeftFoot  -5.05485 -0.497921 9.59781
LeftToes  1.06247e-005 4.65854e-005 -8.18501e-006
454
root  -66.7974 37.0306 -1.04805 -144.107 3.4782 177.656
RightUpLeg  -71.0342 -12.4358 9.50025
RightLeg  44.1049 -5.89699 -6.4009
RightFoot  -6.89547 0.184434 -5.94339
RightToes  0.000482159 0.542163 -0.142577
Spine  73.6349 -3.81277 5.8219
Spine1  7.57039 1.52047 -4.49414
HEad  -38.6364 -4.47851 5.34912
LeftShoulder1  6.14598 -26.9192 -13.0219
LeftArm  -93.2634 -66.2246 45.1675
LeftForeArm  11.7019 -6.69012 1.14417
LeftHand  -0.25398 0.0180481 5.50724
RightShoulder  0.343792 6.29458 -5.58153
RightArm  -96.6135 67.5188 -36.3941
RightForeArm  -22.8195 8.99974 0.878734
RightHand  -3.64656 9.87703 -27.6586
LeftUpLeg  -74.3838 20.0718 -27.07
LeftLeg  38.3056 2.8332 2.77669
LeftFoot  -4.141 -0.598392 9.88116
LeftToes  1.06247e-005 4.65854e-005 -8.18501e-006
